HIERARCHY
ROOT Hips
{
	OFFSET 51.966599 -9.077983 84.374001
	CHANNELS 6 Xposition Yposition Zposition Xrotation Yrotation Zrotation
	JOINT spine
	{
		OFFSET 0.000000 -0.342408 5.954384
		CHANNELS 3 Xrotation Yrotation Zrotation
		JOINT spine1
		{
			OFFSET 0.000000 -0.000002 8.856018
			CHANNELS 3 Xrotation Yrotation Zrotation
			JOINT spine2
			{
				OFFSET 0.000000 -0.000001 8.485672
				CHANNELS 3 Xrotation Yrotation Zrotation
				JOINT Neck
				{
					OFFSET 0.000000 -1.038704 21.786301
					CHANNELS 3 Xrotation Yrotation Zrotation
					JOINT Head
					{
						OFFSET 0.000000 -0.000001 6.582199
						CHANNELS 3 Xrotation Yrotation Zrotation
						End Site
						{
							OFFSET 0.000000 5.254357 15.932602
						}
					}
				}
				JOINT RightShoulder
				{
					OFFSET -3.573071 0.497523 9.163864
					CHANNELS 3 Xrotation Yrotation Zrotation
					JOINT RightArm
					{
						OFFSET 0.000000 -0.000002 12.019196
						CHANNELS 3 Xrotation Yrotation Zrotation
						JOINT RightArmRoll
						{
							OFFSET 0.000000 -0.000001 6.067535
							CHANNELS 3 Xrotation Yrotation Zrotation
							JOINT RightForeArm
							{
								OFFSET 0.000000 -0.000003 17.672592
								CHANNELS 3 Xrotation Yrotation Zrotation
								JOINT RightForeArmRoll
								{
									OFFSET 0.000000 -0.000001 6.808716
									CHANNELS 3 Xrotation Yrotation Zrotation
									JOINT RightHand
									{
										OFFSET 0.000000 -0.000003 13.663605
										CHANNELS 3 Xrotation Yrotation Zrotation
										End Site
										{
											OFFSET 0.000000 0.000000 0.100006
										}
									}
								}
							}
						}
					}
				}
				JOINT LeftShoulder
				{
					OFFSET 3.573071 0.497523 9.163864
					CHANNELS 3 Xrotation Yrotation Zrotation
					JOINT LeftArm
					{
						OFFSET 0.000000 -0.000002 12.019196
						CHANNELS 3 Xrotation Yrotation Zrotation
						JOINT LeftArmRoll
						{
							OFFSET 0.000000 -0.000001 6.067551
							CHANNELS 3 Xrotation Yrotation Zrotation
							JOINT LeftForeArm
							{
								OFFSET 0.000000 -0.000003 17.672607
								CHANNELS 3 Xrotation Yrotation Zrotation
								JOINT LeftForeArmRoll
								{
									OFFSET 0.000000 -0.000001 6.808716
									CHANNELS 3 Xrotation Yrotation Zrotation
									JOINT LeftHand
									{
										OFFSET 0.000000 -0.000003 13.663605
										CHANNELS 3 Xrotation Yrotation Zrotation
										End Site
										{
											OFFSET 0.000000 0.000000 0.100006
										}
									}
								}
							}
						}
					}
				}
			}
		}
	}
	JOINT RightUpLeg
	{
		OFFSET -5.277740 0.811858 -0.967796
		CHANNELS 3 Xrotation Yrotation Zrotation
		JOINT RightUpLegRoll
		{
			OFFSET 0.000000 -0.000003 16.021400
			CHANNELS 3 Xrotation Yrotation Zrotation
			JOINT RightLeg
			{
				OFFSET 0.000000 0.000003 -19.840096
				CHANNELS 3 Xrotation Yrotation Zrotation
				JOINT RightLegRoll
				{
					OFFSET 0.000000 -0.000003 19.904999
					CHANNELS 3 Xrotation Yrotation Zrotation
					JOINT RightFoot
					{
						OFFSET 0.000000 -0.000003 16.567497
						CHANNELS 3 Xrotation Yrotation Zrotation
						JOINT RightToeBase
						{
							OFFSET 0.000000 -0.000002 13.849602
							CHANNELS 3 Xrotation Yrotation Zrotation
							End Site
							{
								OFFSET 0.005871 0.773116 6.707275
							}
						}
					}
				}
			}
		}
	}
	JOINT LeftUpLeg
	{
		OFFSET 5.277740 0.811858 -0.967796
		CHANNELS 3 Xrotation Yrotation Zrotation
		JOINT LeftUpLegRoll
		{
			OFFSET 0.000000 -0.000003 16.021500
			CHANNELS 3 Xrotation Yrotation Zrotation
			JOINT LeftLeg
			{
				OFFSET 0.000000 -0.000003 19.839996
				CHANNELS 3 Xrotation Yrotation Zrotation
				JOINT LeftLegRoll
				{
					OFFSET 0.000000 -0.000004 20.089005
					CHANNELS 3 Xrotation Yrotation Zrotation
					JOINT LeftFoot
					{
						OFFSET 0.000000 -0.000003 16.383499
						CHANNELS 3 Xrotation Yrotation Zrotation
						JOINT LeftToeBase
						{
							OFFSET 0.000000 -0.000002 13.849594
							CHANNELS 3 Xrotation Yrotation Zrotation
							End Site
							{
								OFFSET -0.026310 0.773116 6.707275
							}
						}
					}
				}
			}
		}
	}
}
MOTION
Frames: 5
Frame Time: 0.041667
51.692009 -6.746125 84.512299 -10.602918 1.681236 -4.572794 -0.186740 -0.513513 0.075648 3.630124 -1.026317 0.155224 5.275304 -1.024404 0.164258 15.462498 5.557842 -0.644655 4.795116 -7.385527 -0.257689 2.906391 -74.949414 1.349487 -48.294519 -107.860592 -48.923580 -0.000001 0.000000 0.000000 -0.027934 3.638020 -1.990777 -0.000000 -0.000002 -3.011590 -5.000143 -7.999920 0.000009 -8.563544 69.982781 10.764173 -37.740456 117.739525 46.196227 0.000000 0.000004 -0.000000 -0.027761 -3.639170 1.990858 -0.000003 -0.000013 3.011598 -5.000165 7.999949 -0.000013 4.052274 179.481293 3.271513 -179.999991 0.000005 -1.195006 170.249787 -2.892675 -0.580846 0.000004 -0.000004 0.134617 69.473979 6.865520 2.167540 25.456962 -7.355617 0.000002 4.691689 178.220987 -1.198018 -0.000004 -0.000004 -1.192700 -10.869622 2.268600 0.509110 0.000001 0.000005 -0.187800 70.906455 -6.818623 -2.176587 25.456950 7.355614 -0.000001 
51.670807 -6.775954 84.512802 -10.613934 1.683918 -4.578917 -0.183603 -0.513097 0.075472 3.636404 -1.025482 0.154929 5.281585 -1.023567 0.164299 15.448819 5.531323 -0.646338 4.793394 -7.365755 -0.260109 2.858992 -74.958027 1.297302 -48.352302 -107.829658 -48.952444 -0.000000 0.000000 -0.000000 -0.027934 3.638021 -1.990777 -0.000001 -0.000001 -3.011590 -5.000144 -7.999919 0.000009 -8.550298 69.961839 10.748139 -37.692508 117.743992 46.158644 -0.000000 0.000004 0.000001 -0.027762 -3.639170 1.990858 -0.000005 -0.000013 3.011600 -5.000163 7.999950 -0.000009 4.066983 179.480310 3.272480 -179.999991 0.000005 -1.195005 170.253530 -2.891724 -0.581486 0.000004 -0.000004 0.134617 69.472484 6.865490 2.167626 25.456962 -7.355618 0.000002 4.703499 178.219006 -1.199590 -0.000005 -0.000004 -1.192700 -10.874418 2.267561 0.509157 0.000001 0.000005 -0.187801 70.912308 -6.818638 -2.176630 25.456950 7.355613 -0.000000 
51.674908 -6.771062 84.512199 -10.625560 1.686950 -4.585006 -0.180330 -0.512679 0.075300 3.642946 -1.024646 0.154638 5.288134 -1.022729 0.164358 15.435408 5.503341 -0.648070 4.791675 -7.344573 -0.262584 2.814900 -74.967678 1.248546 -48.407313 -107.799175 -48.978597 -0.000000 0.000000 0.000000 -0.027933 3.638021 -1.990777 -0.000000 -0.000001 -3.011590 -5.000143 -7.999919 0.000009 -8.536320 69.939621 10.731208 -37.644202 117.748363 46.121556 -0.000000 0.000004 0.000001 -0.027761 -3.639170 1.990857 -0.000006 -0.000013 3.011599 -5.000164 7.999950 -0.000011 4.083034 179.479326 3.273172 -179.999991 0.000005 -1.195005 170.258215 -2.889799 -0.581910 0.000004 -0.000004 0.134616 69.470797 6.865483 2.167630 25.456962 -7.355616 0.000001 4.715937 178.218050 -1.201258 -0.000005 -0.000004 -1.192700 -10.879614 2.266383 0.509229 0.000001 0.000005 -0.187801 70.918496 -6.818651 -2.176554 25.456952 7.355613 -0.000000 
51.666508 -6.784535 84.513794 -10.637781 1.690215 -4.591050 -0.176965 -0.512258 0.075130 3.649687 -1.023800 0.154347 5.294864 -1.021892 0.164431 15.422176 5.474333 -0.649839 4.789955 -7.322396 -0.265100 2.773140 -74.978299 1.202199 -48.464639 -107.767975 -49.007287 0.000001 0.000000 0.000000 -0.027934 3.638021 -1.990777 -0.000001 -0.000001 -3.011590 -5.000142 -7.999920 0.000009 -8.521827 69.916419 10.713654 -37.593412 117.754278 46.082405 0.000001 0.000004 0.000002 -0.027763 -3.639170 1.990859 -0.000004 -0.000013 3.011600 -5.000163 7.999949 -0.000011 4.100035 179.477345 3.273626 -179.999991 0.000005 -1.195005 170.263639 -2.888863 -0.582466 0.000004 -0.000004 0.134615 69.468891 6.865508 2.167550 25.456964 -7.355616 0.000000 4.728809 178.216083 -1.203133 -0.000005 -0.000004 -1.192700 -10.885008 2.265124 0.509318 0.000001 0.000005 -0.187801 70.924882 -6.818632 -2.176559 25.456953 7.355613 -0.000000 
51.663307 -6.791151 84.512794 -10.650207 1.693625 -4.597090 -0.173547 -0.511840 0.074961 3.656526 -1.022954 0.154058 5.301705 -1.021054 0.164510 15.409038 5.444742 -0.651636 4.788227 -7.299662 -0.267635 2.732671 -74.989398 1.157194 -48.519608 -107.737389 -49.033587 -0.000000 0.000000 0.000000 -0.027934 3.638021 -1.990776 -0.000001 -0.000001 -3.011590 -5.000141 -7.999919 0.000009 -8.507087 69.892827 10.695783 -37.543637 117.759373 46.044846 -0.000000 0.000004 0.000001 -0.027759 -3.639170 1.990857 -0.000005 -0.000014 3.011601 -5.000162 7.999949 -0.000010 4.117586 179.476348 3.274033 -179.999991 0.000005 -1.195004 170.269417 -2.886933 -0.582832 0.000004 -0.000004 0.134614 69.466992 6.865492 2.167566 25.456960 -7.355615 0.000000 4.741925 178.215140 -1.204983 -0.000005 -0.000004 -1.192700 -10.890604 2.263815 0.509419 0.000001 0.000005 -0.187801 70.931385 -6.818644 -2.176564 25.456950 7.355613 -0.000001 
